:SAMPLES-PER-SECOND 30
:FULLY-SPECIFIED
:DEGREES
492
root  -38.1424 37.6286 -30.7297 -27.5804 -88.5587 57.6878
RightUpLeg  -64.8488 -17.337 18.8709
RightLeg  34.0784 -0.0383204 -0.284778
RightFoot  -1.51621 1.19124 -13.8941
RightToes  0.000482159 0.542163 -0.142577
Spine  69.0387 -4.30961 6.40901
Spine1  3.92446 1.0405 -5.55514
HEad  -37.065 -2.14783 -8.3123
LeftShoulder1  7.84399 -27.6672 -18.384
LeftArm  -71.635 -69.9997 25.7423
LeftForeArm  15.7372 1.39888 -1.05776
LeftHand  -0.25398 0.0180481 5.50724
RightShoulder  2.23566 13.0874 5.73679
RightArm  -74.6202 68.7443 -26.4423
RightForeArm  -6.24015 -2.79839 1.85516
RightHand  -4.73731 12.3 -30.8076
LeftUpLeg  -63.2977 12.5766 -14.9287
LeftLeg  33.3362 3.6843 2.96318
LeftFoot  0.422878 -0.833198 8.05043
LeftToes  1.06248e-005 4.65854e-005 -8.185e-006
493
root  -37.8281 37.9358 -30.6837 -28.4011 -88.3419 56.1713
RightUpLeg  -61.7228 -18.7303 18.4569
RightLeg  31.6267 0.556658 0.1211
RightFoot  -0.149031 1.35067 -13.7161
RightToes  0.000482159 0.542163 -0.142577
Spine  67.6997 -4.50891 6.45822
Spine1  5.23964 0.914781 -5.91763
HEad  -36.2858 -1.23608 -9.00925
LeftShoulder1  8.09313 -27.3983 -19.486
LeftArm  -56.8652 -68.808 10.6015
LeftForeArm  16.591 2.24763 -1.81537
LeftHand  -0.25398 0.0180481 5.50724
RightShoulder  2.64307 13.4092 8.15166
RightArm  -67.1969 69.9103 -18.7233
RightForeArm  -4.68354 -1.20511 2.76093
RightHand  -5.05407 13.0422 -31.503
LeftUpLeg  -59.9723 12.7036 -14.3295
LeftLeg  31.0095 3.63519 2.70681
LeftFoot  2.04442 -0.933004 7.81726
LeftToes  1.06248e-005 4.65854e-005 -8.185e-006
494
root  -37.5196 38.2747 -30.631 -29.3209 -87.939 54.7293
RightUpLeg  -58.5028 -20.5203 17.941
RightLeg  28.9782 1.6158 0.728419
RightFoot  1.40939 1.48862 -13.1656
RightToes  0.000482159 0.542163 -0.142577
Spine  66.2626 -4.62245 6.48363
Spine1  6.18053 0.757426 -6.02668
HEad  -34.9153 0.0102754 -9.74279
LeftShoulder1  8.66307 -27.1769 -21.6641
LeftArm  -42.3416 -65.233 -4.08213
LeftForeArm  17.4913 2.84869 -2.65572
LeftHand  -0.25398 0.0180481 5.50724
RightShoulder  3.05107 13.7826 10.4131
RightArm  -54.4999 69.7822 -6.56104
RightForeArm  -3.50831 -0.114853 3.95794
RightHand  -4.99044 12.9501 -31.2716
LeftUpLeg  -56.5927 13.094 -14.1189
LeftLeg  28.3945 3.13052 2.179
LeftFoot  4.48361 -1.09065 7.64976
LeftToes  1.06248e-005 4.65854e-005 -8.185e-006
495
root  -37.2246 38.6243 -30.5685 -28.2626 -87.3687 51.5344
RightUpLeg  -55.4687 -22.6908 17.5858
RightLeg  26.0801 3.12891 1.42665
RightFoot  3.11937 1.62498 -12.5752
RightToes  0.000482159 0.542163 -0.142577
Spine  64.5816 -4.56447 6.59457
Spine1  6.89775 0.557554 -5.4864
HEad  -33.1649 1.12034 -10.8559
LeftShoulder1  9.82619 -26.8923 -25.9525
LeftArm  -31.655 -59.6044 -13.534
LeftForeArm  17.5465 3.08628 -3.79593
LeftHand  -0.25398 0.0180481 5.50724
RightShoulder  3.30419 14.0536 11.7085
RightArm  -40.5055 67.6842 7.65637
RightForeArm  -2.09076 0.208 4.79218
RightHand  -4.67434 12.2918 -30.4351
LeftUpLeg  -53.4069 13.5626 -13.9661
LeftLeg  25.8623 1.69278 1.23734
LeftFoot  6.9925 -0.927113 5.52412
LeftToes  1.06248e-005 4.65854e-005 -8.185e-006
496
root  -36.9375 38.9632 -30.4801 -26.2225 -86.6714 47.3399
RightUpLeg  -52.4067 -25.2135 17.3002
RightLeg  23.0124 4.74489 1.98998
RightFoot  4.87345 1.76547 -12.1008
RightToes  0.000482159 0.542163 -0.142577
Spine  63.1505 -4.48221 6.73159
Spine1  7.10965 0.341997 -4.70992
HEad  -30.9806 1.95315 -12.1435
LeftShoulder1  10.9804 -26.1168 -30.844
LeftArm  -24.4839 -52.2807 -19.3474
LeftForeArm  17.2712 2.33023 -4.75031
LeftHand  -0.25398 0.0180481 5.50724
RightShoulder  3.66856 14.4502 13.4717
RightArm  -28.9329 63.3077 18.732
RightForeArm  -1.63067 0.546555 5.72038
RightHand  -4.30832 11.4798 -29.4601
LeftUpLeg  -50.059 13.2125 -12.7076
LeftLeg  24.4893 -0.765463 -0.0544004
LeftFoot  7.33735 -0.112357 0.311649
LeftToes  1.06248e-005 4.65854e-005 -8.185e-006
497
root  -36.6447 39.2502 -30.3406 -25.878 -85.9985 44.5803
RightUpLeg  -48.6584 -26.8745 15.5684
RightLeg  20.1685 4.92815 2.50805
RightFoot  6.53893 1.87308 -11.5726
RightToes  0.000482159 0.542163 -0.142577
Spine  62.4961 -4.55267 6.69574
Spine1  6.31713 0.0375108 -4.33542
HEad  -28.1302 3.01037 -13.2757
LeftShoulder1  11.141 -24.5617 -33.4832
LeftArm  -19.7845 -43.1299 -24.972
LeftForeArm  18.2957 0.408235 -4.94588
LeftHand  -0.25398 0.0180481 5.50724
RightShoulder  4.32509 15.0284 16.6637
RightArm  -19.9486 57.3436 25.379
RightForeArm  -2.58005 1.36371 7.08234
RightHand  -3.87948 10.4375 -28.3306
LeftUpLeg  -46.2869 11.4776 -10.1907
LeftLeg  24.9553 -2.15679 -0.763777
LeftFoot  3.94324 0.59663 -4.63608
LeftToes  1.06248e-005 4.65854e-005 -8.185e-006
498
root  -36.3336 39.4735 -30.1381 -28.5911 -85.3096 44.8939
RightUpLeg  -43.709 -25.5073 10.3237
RightLeg  17.6091 1.29342 3.29832
RightFoot  8.05595 1.91587 -10.8442
RightToes  0.000482159 0.542163 -0.142577
Spine  60.8866 -4.31607 6.74658
Spine1  7.08977 0.172416 -3.95885
HEad  -25.2542 3.48559 -14.5558
LeftShoulder1  10.7664 -23.5848 -33.5662
LeftArm  -18.0559 -33.829 -30.654
LeftForeArm  21.1896 -1.48583 -4.30286
LeftHand  -0.25398 0.0180481 5.50724
RightShoulder  4.93199 14.9436 20.3321
RightArm  -13.9107 50.8613 27.7627
RightForeArm  -4.19011 2.521 8.44056
RightHand  -3.39771 9.16473 -27.0468
LeftUpLeg  -42.5342 9.27608 -7.90731
LeftLeg  26.9477 -0.640382 0.000204241
LeftFoot  -1.22959 0.513814 -5.56527
LeftToes  1.06248e-005 4.65854e-005 -8.185e-006
499
root  -36.003 39.6328 -29.8732 -31.7713 -84.5269 46.0295
RightUpLeg  -39.3354 -22.9248 4.80386
RightLeg  15.3136 -3.23877 4.09747
RightFoot  9.41483 1.92469 -10.1202
RightToes  0.000482159 0.542163 -0.142577
Spine  58.9704 -4.12086 6.80028
Spine1  7.84501 0.243481 -3.66123
HEad  -21.8101 4.52492 -16.2238
LeftShoulder1  10.7948 -22.7717 -34.912
LeftArm  -16.9496 -25.365 -32.703
LeftForeArm  23.3825 -2.63205 -4.21705
LeftHand  -0.25398 0.0180481 5.50724
RightShoulder  5.44677 14.659 23.7794
RightArm  -9.19079 43.9822 28.6302
RightForeArm  -5.15801 3.80799 9.54798
RightHand  -3.02953 8.10836 -26.0482
LeftUpLeg  -39.0755 7.91335 -6.62791
LeftLeg  29.542 3.19857 2.31203
LeftFoot  -5.16962 0.233503 -3.78226
LeftToes  1.06248e-005 4.65854e-005 -8.185e-006
500
root  -35.6528 39.7204 -29.5493 -32.0533 -83.8076 44.4869
RightUpLeg  -35.8069 -20.3375 0.30914
RightLeg  13.3118 -7.57757 4.83304
RightFoot  10.6895 1.93425 -9.52796
RightToes  0.000482159 0.542163 -0.142577
Spine  57.4536 -4.437 7.1197
Spine1  7.639 0.0850846 -4.03371
HEad  -17.6661 6.88499 -17.964
LeftShoulder1  11.3903 -21.7443 -38.8431
LeftArm  -14.6164 -18.0036 -29.618
LeftForeArm  23.3274 -3.32019 -5.14073
LeftHand  -0.25398 0.0180481 5.50724
RightShoulder  6.00803 14.4986 27.3179
RightArm  -4.70781 36.7541 28.6836
RightForeArm  -5.47083 5.3052 10.5193
RightHand  -2.80444 7.39933 -25.4659
LeftUpLeg  -35.6566 7.41066 -5.4554
LeftLeg  32.1412 6.58374 4.78436
LeftFoot  -7.39706 0.13742 -2.77294
LeftToes  1.06248e-005 4.65854e-005 -8.185e-006
501
root  -35.2715 39.734 -29.1696 -30.2517 -83.3379 40.9071
RightUpLeg  -33.1007 -18.6766 -2.60111
RightLeg  11.8178 -10.4378 5.40049
RightFoot  11.9222 1.94224 -9.00961
RightToes  0.000482159 0.542163 -0.142577
Spine  55.3275 -4.61472 7.6574
Spine1  8.38752 0.084827 -4.05314
HEad  -13.7398 9.99439 -20.1157
LeftShoulder1  12.1754 -20.6727 -43.7809
LeftArm  -11.839 -12.4083 -24.3533
LeftForeArm  22.3079 -3.99967 -6.2264
LeftHand  -0.25398 0.0180481 5.50724
RightShoulder  6.28196 14.1991 29.4891
RightArm  -0.513269 29.7942 28.6135
RightForeArm  -5.90004 6.94888 11.052
RightHand  -2.58165 6.67217 -24.8688
LeftUpLeg  -32.1374 6.98459 -3.73875
LeftLeg  34.6165 7.84587 6.1349
LeftFoot  -9.18513 0.109582 -2.89473
LeftToes  1.06248e-005 4.65854e-005 -8.185e-006
502
root  -34.8452 39.6799 -28.7442 -28.2051 -83.1024 37.0981
RightUpLeg  -31.0643 -17.7999 -4.42682
RightLeg  10.9293 -11.7919 5.70714
RightFoot  12.9474 1.8969 -8.37777
RightToes  0.000482159 0.542163 -0.142577
Spine  53.1644 -4.73031 8.34034
Spine1  9.09181 0.251181 -4.20884
HEad  -9.89899 14.0756 -22.1535
LeftShoulder1  12.4033 -19.7582 -46.4804
LeftArm  -10.2991 -6.83716 -21.139
LeftForeArm  21.9456 -5.2578 -6.55135
LeftHand  -0.25398 0.0180481 5.50724
RightShoulder  6.38301 13.7689 30.9838
RightArm  3.63287 22.7457 28.7296
RightForeArm  -6.56537 8.72036 11.0991
RightHand  -2.30575 5.79446 -23.9767
LeftUpLeg  -28.5958 6.38818 -1.70579
LeftLeg  37.054 7.857 6.68577
LeftFoot  -10.9582 0.0756225 -2.86773
LeftToes  1.06248e-005 4.65854e-005 -8.185e-006
